# AST/ASF file generated using VICON BodyLanguage
# -----------------------------------------------
:version 1.10
:name VICON
:units
  mass 1.0
  length 0.45
  angle deg
:documentation
   .ast/.asf automatically generated from VICON data using
   VICON BodyBuilder and BodyLanguage model FoxedUp or BRILLIANT.MOD
:root
   order TX TY TZ RX RY RZ
   axis XYZ
   position 0 0 0  
   orientation 0 0 0 
:bonedata
  begin
     id 1 
     name lhipjoint
     direction 0.70531 -0.63749 0.310071 
     length 2.59589 
     axis 0 0 0  XYZ
  end
  begin
     id 2 
     name lfemur
     direction 0.34202 -0.939693 0  
     length 6.19797  
     axis 0 0 20  XYZ
    dof rx ry rz
    limits (-160.0 20.0)
           (-70.0 70.0)
           (-60.0 70.0)
  end
  begin
     id 3 
     name ltibia
     direction 0.34202 -0.939693 0   
     length 7.80054   
     axis 0 0 20   XYZ
    dof rx
    limits (-10.0 170.0)
  end
  begin
     id 4 
     name lfoot
     direction 0.0828572 -0.227648 0.970212   
     length 1.88124   
     axis -90 7.62852e-016 20   XYZ
    dof rx rz
    limits (-45.0 90.0)
           (-70.0 20.0)
  end
  begin
     id 5 
     name ltoes
     direction 1.53544e-011 -4.219e-011 1   
     length 0.948015   
     axis -90 7.62852e-016 20   XYZ
    dof rx
    limits (-90.0 20.0)
  end
  begin
     id 6 
     name rhipjoint
     direction -0.730062 -0.614543 0.29891   
     length 2.69282  
     axis 0 0 0  XYZ 
  end
  begin
     id 7 
     name rfemur
     direction -0.34202 -0.939693 0   
     length 5.86298   
     axis 0 0 -20   XYZ
    dof rx ry rz
    limits (-160.0 20.0)
           (-70.0 70.0)
           (-70.0 60.0)
  end
  begin
     id 8 
     name rtibia
     direction -0.34202 -0.939693 0   
     length 7.72374   
     axis 0 0 -20   XYZ
    dof rx
    limits (-10.0 170.0)
 end
 begin
     id 9 
     name rfoot
     direction -0.0967421 -0.265797 0.959163   
     length 2.02368  
     axis -90 -7.62852e-016 -20   XYZ
    dof rx rz
    limits (-45.0 90.0)
           (-20.0 70.0)
  end
  begin
     id 10 
     name rtoes
     direction -1.53524e-011 -4.21768e-011 1   
     length 1.01373   
     axis -90 -7.62852e-016 -20   XYZ
    dof rx
    limits (-90.0 20.0)
  end
  begin
     id 11 
     name lowerback
     direction 0.00561702 0.992801 -0.119643   
     length 2.02816   
     axis 0 0 0   XYZ
    dof rx ry rz
    limits (-20.0 45.0)
           (-30.0 30.0)
           (-30.0 30.0)
  end
  begin
     id 12 
     name upperback
     direction 0.00155544 0.995735 -0.0922509   
     length 2.02265   
     axis 0 0 0   XYZ
    dof rx ry rz
    limits (-20.0 45.0)
           (-30.0 30.0)
           (-30.0 30.0)
  end
  begin
     id 13 
     name thorax
     direction -0.000937535 0.999317 -0.0369292   
     length 2.04823   
     axis 0 0 0   XYZ
    dof rx ry rz
    limits (-20.0 45.0)
           (-30.0 30.0)
           (-30.0 30.0)
  end
  begin
     id 14 
     name lowerneck
     direction -0.0813151 0.981659 0.172436   
     length 1.8875   
     axis 0 0 0   XYZ
    dof rx ry rz
    limits (-20.0 45.0)
           (-30.0 30.0)
           (-30.0 30.0)
  end
  begin
     id 15 
     name upperneck
     direction 0.119359 0.955672 -0.269157   
     length 1.92801   
     axis 0 0 0   XYZ
    dof rx ry rz
    limits (-20.0 45.0)
           (-30.0 30.0)
           (-30.0 30.0)
  end
  begin
     id 16
     name head
     direction 0.0421007 0.992672 -0.113268  
     length 1.95809  
     axis 0 0 0   XYZ
    dof rx ry rz
    limits (-20.0 45.0)
           (-30.0 30.0)
           (-30.0 30.0)
  end
  begin
     id 17 
     name lclavicle
     direction 0.944093 0.32865 -0.0260136  
     length 3.84992  
     axis 0 0 0   XYZ
    dof ry rz
    limits (-20.0 10.0)
           (0.0 20.0)
  end
  begin
     id 18 
     name lhumerus
     direction 1 -4.48979e-011 -1.27712e-029   
     length 5.53593   
     axis 180 -30 -90   XYZ
    dof rx ry rz
    limits (-60.0 90.0)
           (-90.0 90.0)
           (-90.0 90.0)
  end
  begin
     id 19
     name lradius
     direction 1 -4.48966e-011 1.00051e-028   
     length 3.13345   
     axis 180 -30 -90   XYZ
    dof rx
    limits (-10.0 170.0)
  end
  begin
     id 20
     name lwrist
     direction 1 -4.4896e-011 2.56952e-028   
     length 1.56673   
     axis -5.12785e-016 90 90   XYZ
    dof ry
    limits (-180.0 0.0)
 end
  begin
     id 21 
     name lhand
     direction 1 -4.48934e-011 5.13905e-028   
     length 0.713374   
     axis -3.27915e-016 90 90   XYZ
    dof rx rz
    limits (-90.0 90.0)
           (-45.0 45.0)
  end
  begin
     id 22 
     name lfingers
     direction 1 -4.48973e-011 1.02781e-027   
     length 0.575141   
     axis -6.5583e-016 90 90   XYZ
    dof rx
    limits (0.0 90.0)
  end
  begin
     id 23
     name lthumb
     direction 0.707107 -6.34883e-011 0.707107   
     length 0.82579   
     axis -90 45 2.85299e-015   XYZ
    dof rx rz
    limits (-45.0 45.0)
           (-45.0 45.0)
  end
  begin
     id 24 
     name rclavicle
     direction -0.936895 0.34884 0.0232243   
     length 3.53304  
     axis 0 0 0   XYZ 
    dof ry rz
    limits (-10.0 20.0)
           (-20.0 0.0)
  end
  begin
     id 25 
     name rhumerus
     direction -1 -4.48965e-011 1.05514e-027  
     length 5.4685   
     axis 180 30 90   XYZ
    dof rx ry rz
    limits (-90.0 60.0)
           (-90.0 90.0)
           (-90.0 90.0)
  end
  begin
     id 26 
     name rradius
     direction -1 -4.48964e-011 -1.1079e-027   
     length 3.22411   
     axis 180 30 90   XYZ
    dof rx
    limits (-10.0 170.0)
  end
  begin
     id 27 
     name rwrist
     direction -1 -4.48973e-011 2.56952e-028   
     length 1.61206   
     axis -5.12785e-016 -90 -90   XYZ
    dof ry
    limits (-180.0 0.0)
  end
  begin
     id 28
     name rhand
     direction -1 -4.48957e-011 5.13905e-028   
     length 0.74528   
     axis -3.27915e-016 -90 -90   XYZ
    dof rx rz
    limits (-90.0 90.0)
           (-45.0 45.0)
  end
  begin
     id 29
     name rfingers
     direction -1 -4.4901e-011 1.02781e-027   
     length 0.600864   
     axis -6.5583e-016 -90 -90   XYZ
    dof rx
    limits (0.0 90.0)
  end
  begin
     id 30
     name rthumb
     direction -0.707107 -6.34972e-011 0.707107   
     length 0.862724   
     axis -90 -45 -2.85299e-015   XYZ
    dof rx rz
    limits (-45.0 45.0)
           (-45.0 45.0)
  end
:hierarchy
  begin
    root lhipjoint rhipjoint lowerback
    lhipjoint lfemur
    lfemur ltibia
    ltibia lfoot
    lfoot ltoes
    rhipjoint rfemur
    rfemur rtibia
    rtibia rfoot
    rfoot rtoes
    lowerback upperback
    upperback thorax
    thorax lowerneck lclavicle rclavicle
    lowerneck upperneck
    upperneck head
    lclavicle lhumerus
    lhumerus lradius
    lradius lwrist
    lwrist lhand lthumb
    lhand lfingers
    rclavicle rhumerus
    rhumerus rradius
    rradius rwrist
    rwrist rhand rthumb
    rhand rfingers
  end

#!OML:ASF G:\Work\Work\Patient Classification 1\Liu\Session 1\Liu.ASF
:FULLY-SPECIFIED
:DEGREES
262
root 18.1863 15.4719 -37.0062 -194.068 -74.886 -155.101
lowerback 2.92749 -2.79204 0.150718
upperback 0.582302 -3.71326 1.00701
thorax -0.9839 -1.85865 1.08357
lowerneck -23.2398 5.78597 -2.41772
upperneck 32.5547 8.68002 0.436415
head 15.1212 3.12228 2.19729
rclavicle -3.95581e-014 2.06736e-014
rhumerus -68.2427 17.539 -92.2405
rradius 86.7967
rwrist -18.5415
rhand -29.7306 37.3658
rfingers 7.12502
rthumb -3.05732 7.40795
lclavicle -3.95581e-014 2.06736e-014
lhumerus -28.2373 -42.6788 92.4163
lradius 99.4445
lwrist 14.0864
lhand -29.1461 29.8903
lfingers 7.12502
lthumb -2.49279 59.8555
rfemur -43.5981 5.29549 18.4391
rtibia 52.4799
rfoot -17.4871 18.5648
rtoes 27.6045
lfemur 0.297127 -2.7306 -36.411
ltibia 24.7965
lfoot 9.73426 -10.8161
ltoes 1.90611
263
root 18.0057 15.4874 -37.102 -194.09 -75.608 -154.643
lowerback 2.60143 -2.96158 -0.110097
upperback 0.539832 -3.94701 1.06848
thorax -0.819297 -1.97509 1.28162
lowerneck -23.44 5.62431 -3.03273
upperneck 32.7523 8.57355 0.802226
head 15.2006 3.04236 2.44183
rclavicle 2.5842e-014 1.43125e-014
rhumerus -68.3382 17.641 -92.1499
rradius 86.7652
rwrist -17.87
rhand -29.5041 37.3657
rfingers 7.12502
rthumb -2.83854 7.40489
lclavicle 2.5842e-014 1.43125e-014
lhumerus -27.8608 -42.0265 91.6718
lradius 99.5668
lwrist 13.9829
lhand -29.0614 29.5612
lfingers 7.12502
lthumb -2.41098 59.5273
rfemur -43.4052 5.24546 18.9583
rtibia 51.7572
rfoot -18.0424 18.0749
rtoes 29.4335
lfemur -0.23583 -0.772905 -35.6168
ltibia 25.7432
lfoot 13.0353 -10.7782
ltoes 2.067
264
root 17.8227 15.4936 -37.1968 -193.533 -76.1642 -154.843
lowerback 2.27253 -2.95329 -0.262007
upperback 0.524153 -3.94022 0.921125
thorax -0.651832 -1.97132 1.19664
lowerneck -23.6805 5.37489 -3.62611
upperneck 32.9819 8.2537 1.39256
head 15.2988 2.91008 2.74044
rclavicle -1.39149e-014 -1.11319e-014
rhumerus -68.4079 17.4007 -92.2274
rradius 86.7491
rwrist -17.3097
rhand -29.1918 37.2792
rfingers 7.12502
rthumb -2.53694 7.31454
lclavicle -1.39149e-014 -1.11319e-014
lhumerus -27.7677 -41.8492 90.8168
lradius 99.8491
lwrist 14.2545
lhand -29.3332 29.705
lfingers 7.12502
lthumb -2.67352 59.6679
rfemur -43.1594 5.39322 19.3703
rtibia 51.1238
rfoot -18.4583 17.3367
rtoes 32.4837
lfemur -0.903739 0.676298 -35.0953
ltibia 27.0675
lfoot 15.7913 -10.1335
ltoes -0.095068
265
root 17.6289 15.4946 -37.2737 -192.175 -76.6557 -156.107
lowerback 2.06878 -2.89996 -0.403769
upperback 0.589598 -3.87311 0.658546
thorax -0.481193 -1.93789 0.991836
lowerneck -21.4731 6.24399 -0.335208
upperneck 30.7439 9.40363 -2.32542
head 14.2314 3.39052 0.774501
rclavicle 9.34288e-015 1.66979e-014
rhumerus -68.3586 17.3049 -92.3089
rradius 86.7392
rwrist -16.8288
rhand -28.7626 37.0561
rfingers 7.12502
rthumb -2.12246 7.08693
lclavicle 9.34288e-015 1.66979e-014
lhumerus -27.8658 -41.7088 90.0323
lradius 100.115
lwrist 14.7501
lhand -29.7306 30.3218
lfingers 7.12502
lthumb -3.05726 60.2796
rfemur -42.5129 5.20268 19.5574
rtibia 50.2302
rfoot -18.051 16.5499
rtoes 33.2241
lfemur -1.90427 1.15777 -35.0341
ltibia 29.5414
lfoot 17.7335 -7.95958
ltoes -1.59125
266
root 17.4303 15.4876 -37.3281 -190.118 -77.0715 -158.158
lowerback 1.974 -2.85498 -0.560527
upperback 0.641218 -3.81688 0.43911
thorax -0.381211 -1.90999 0.846761
lowerneck -23.6933 5.0752 -3.7432
upperneck 33.1224 7.98312 1.05649
head 15.3975 2.71883 2.57463
rclavicle 4.85035e-014 1.90833e-014
rhumerus -68.267 17.6534 -92.2158
rradius 86.7215
rwrist -16.3232
rhand -28.6332 37.0637
rfingers 7.12502
rthumb -1.99745 7.09331
lclavicle 4.85035e-014 1.90833e-014
lhumerus -27.8689 -41.2438 89.4577
lradius 100.065
lwrist 15.3762
lhand -29.9977 30.7867
lfingers 7.12502
lthumb -3.31522 60.7407
rfemur -41.9902 4.7874 19.5787
rtibia 49.7821
rfoot -17.3372 15.4812
rtoes 33.1183
lfemur -2.68957 1.6937 -35.0481
ltibia 31.6329
lfoot 20.4204 -3.90955
ltoes 4.27589
267
root 17.2063 15.5754 -37.3376 -186.237 -77.3906 -161.957
lowerback 1.79853 -2.73279 -0.985788
upperback 0.639126 -3.66167 0.158102
thorax -0.279853 -1.83282 0.783807
lowerneck -25.7401 4.195 -6.65335
upperneck 35.3339 7.07985 3.77332
head 16.6822 2.21557 4.22476
rclavicle 1.15295e-014 2.46493e-014
rhumerus -68.0292 18.2183 -92.0346
rradius 86.6562
rwrist -16.0266
rhand -28.6818 37.2961
rfingers 7.12502
rthumb -2.04439 7.32619
lclavicle 1.15295e-014 2.46493e-014
lhumerus -28.4153 -41.1045 88.7847
lradius 100.779
lwrist 16.3197
lhand -30.1866 31.0472
lfingers 7.12502
lthumb -3.49762 60.9983
rfemur -41.0837 4.17538 19.1106
rtibia 48.9157
rfoot -15.7385 14.138
rtoes 33.2051
lfemur -3.38755 -1.7713 -34.8973
ltibia 34.4661
lfoot 19.4305 2.19958
ltoes 21.2727
